<?xml version="1.0" encoding="UTF-8"?>
<svg xmlns="http://www.w3.org/2000/svg" width="1200" height="400" viewBox="0 0 1200 400">
  <rect width="100%" height="100%" fill="#0f172a" />
  <g transform="translate(600,200)">
    <ellipse rx="480" ry="140" fill="#1f2937" stroke="#374151" stroke-width="4" />
    <!-- sectors (12) -->
    <g stroke="#60a5fa" stroke-opacity="0.9" stroke-width="2">
      <!-- draw radial separators -->
      <!-- approximate positions -->
      <g stroke="#60a5fa">
        <line x1="0" y1="0" x2="480" y2="0" transform="rotate(0)" />
        <line x1="0" y1="0" x2="480" y2="0" transform="rotate(30)" />
        <line x1="0" y1="0" x2="480" y2="0" transform="rotate(60)" />
        <line x1="0" y1="0" x2="480" y2="0" transform="rotate(90)" />
        <line x1="0" y1="0" x2="480" y2="0" transform="rotate(120)" />
        <line x1="0" y1="0" x2="480" y2="0" transform="rotate(150)" />
        <line x1="0" y1="0" x2="480" y2="0" transform="rotate(180)" />
        <line x1="0" y1="0" x2="480" y2="0" transform="rotate(210)" />
        <line x1="0" y1="0" x2="480" y2="0" transform="rotate(240)" />
        <line x1="0" y1="0" x2="480" y2="0" transform="rotate(270)" />
        <line x1="0" y1="0" x2="480" y2="0" transform="rotate(300)" />
        <line x1="0" y1="0" x2="480" y2="0" transform="rotate(330)" />
      </g>
    </g>
    <!-- sector labels -->
    <g font-family="Inter, Arial, sans-serif" font-size="14" fill="#c7d2fe" text-anchor="middle">
      <text x="360" y="-10">Sector 1</text>
      <text x="320" y="-155">Sector 2</text>
      <text x="200" y="-210">Sector 3</text>
      <text x="40" y="-220">Sector 4</text>
      <text x="-140" y="-200">Sector 5</text>
      <text x="-300" y="-140">Sector 6</text>
      <text x="-360" y="-10">Sector 7</text>
      <text x="-320" y="130">Sector 8</text>
      <text x="-200" y="190">Sector 9</text>
      <text x="-20" y="210">Sector 10</text>
      <text x="160" y="190">Sector 11</text>
      <text x="320" y="120">Sector 12</text>
    </g>
    <!-- center label -->
    <text x="0" y="6" font-family="Inter, Arial, sans-serif" font-size="20" fill="#e6edf3" text-anchor="middle">THE HAVEN — 12 SECTORS</text>
  </g>
</svg>
